<?xml version="1.0" encoding="UTF-8" standalone="no"?> <svg xmlns:dc="http://purl.org/dc/elements/1.1/" xmlns:cc="http://creativecommons.org/ns#" xmlns:rdf="http://www.w3.org/1999/02/22-rdf-syntax-ns#" xmlns:svg="http://www.w3.org/2000/svg" xmlns="http://www.w3.org/2000/svg" width="1950" height="450" viewBox="0 0 515.93749 119.0625" version="1.1" id="svg14366"><metadata id="metadata314"></metadata><defs id="defs14363"></defs><g id="layer1" transform="translate(107.77774,-453.22558)"><g id="logo-main-inverted" transform="matrix(5.0000001,0,0,5.0000001,-1354.6475,95.333078)"><rect style="fill:none;fill-opacity:1;stroke-width:0.210889;stroke-linecap:round;paint-order:fill markers stroke;stop-color:#000000" id="rect846-6-0-9-3-5" width="103.1875" height="23.8125" x="249.37395" y="71.578499"></rect><path id="path4666-9-2-97" style="display:inline;fill:#ffffff;fill-opacity:1;stroke:none;stroke-width:0.850515;stroke-miterlimit:4;stroke-dasharray:none;paint-order:fill markers stroke;stop-color:#000000" d="m 278.52844,77.779132 c -0.9072,0 -1.76204,0.16258 -2.56457,0.48824 -0.7909,0.32567 -1.47755,0.76779 -2.05908,1.32607 -0.58156,0.55828 -1.04053,1.22676 -1.37782,2.00602 -0.3373,0.76764 -0.50615,1.59373 -0.50615,2.47767 0,0.88395 0.16258,1.71004 0.48823,2.47767 0.33731,0.76765 0.79694,1.4305 1.37848,1.98878 0.58154,0.55828 1.26753,0.99974 2.05842,1.3254 0.80253,0.32567 1.66366,0.48891 2.58249,0.48891 0.95373,0 1.87796,-0.20388 2.77354,-0.61096 0.9072,-0.40709 1.65201,-0.95362 2.23355,-1.63984 l -1.65775,-1.63985 c -0.43035,0.50013 -0.92434,0.8841 -1.48262,1.1516 -0.55828,0.26751 -1.15737,0.40135 -1.79707,0.40135 -0.56991,0 -1.09893,-0.0988 -1.58742,-0.29653 -0.47688,-0.20936 -0.89587,-0.48891 -1.25643,-0.83783 -0.34892,-0.34893 -0.6278,-0.76165 -0.83716,-1.23851 -0.19773,-0.48849 -0.29653,-1.0119 -0.29653,-1.57019 0,-0.56991 0.0988,-1.09332 0.29653,-1.57019 0.19773,-0.48849 0.47098,-0.90748 0.81992,-1.25641 0.34892,-0.36055 0.76164,-0.63944 1.23851,-0.83717 0.48849,-0.20935 1.00628,-0.31377 1.55293,-0.31377 0.65133,0 1.26726,0.14506 1.84879,0.43583 0.58156,0.27914 1.08745,0.68624 1.51779,1.22126 l 1.71017,-1.69225 c -0.56991,-0.69784 -1.31473,-1.25001 -2.23355,-1.65709 -0.91885,-0.4187 -1.86621,-0.62821 -2.8432,-0.62821 z m 12.125,0 c -0.89557,0 -1.73918,0.16258 -2.53007,0.48824 -0.7909,0.32567 -1.47688,0.77341 -2.05843,1.34332 -0.56991,0.55828 -1.02327,1.22742 -1.36056,2.00668 -0.3373,0.76764 -0.50615,1.58746 -0.50615,2.45976 0,0.87232 0.16885,1.69841 0.50615,2.47767 0.33729,0.76765 0.79065,1.43612 1.36056,2.00602 0.58155,0.55829 1.26753,1.00041 2.05843,1.32608 0.79089,0.32566 1.6345,0.48824 2.53007,0.48824 0.90721,0 1.75643,-0.16258 2.54734,-0.48824 0.79089,-0.32567 1.47127,-0.76779 2.04117,-1.32608 0.58154,-0.5699 1.04052,-1.23837 1.37781,-2.00602 0.33729,-0.77926 0.50615,-1.60535 0.50615,-2.47767 0,-0.8723 -0.16886,-1.69212 -0.50615,-2.45976 -0.33729,-0.77926 -0.79627,-1.4484 -1.37781,-2.00668 -0.5699,-0.56991 -1.25028,-1.01765 -2.04117,-1.34332 -0.79091,-0.32566 -1.64013,-0.48824 -2.54734,-0.48824 z m 8.19989,0.19172 v 12.21257 h 9.21151 v -2.23356 h -6.6821 v -9.97901 z m 10.95615,0 v 12.21257 h 2.33771 v -8.98463 l 4.22165,8.11231 4.23957,-8.09506 v 8.96738 h 2.39011 v -12.21257 h -3.24451 l -3.35001,6.56003 -3.34999,-6.56003 z m 15.38744,0 v 12.21257 h 9.45562 v -2.1984 h -6.92619 v -2.89625 h 4.51883 v -2.12808 h -4.51883 v -2.79144 h 6.85654 v -2.1984 z m 11.25269,0 v 12.21257 h 2.53007 v -5.7222 l 5.32086,5.7222 h 3.38449 l -6.17593,-6.40281 5.89665,-5.80976 h -3.08796 l -5.33811,5.47808 v -5.47808 z m -45.79617,2.12874 c 0.54666,0 1.05817,0.10442 1.53503,0.31377 0.47687,0.19773 0.88396,0.47662 1.22127,0.83717 0.34892,0.34893 0.62219,0.76792 0.81992,1.25641 0.19772,0.47687 0.29652,1.00028 0.29652,1.57019 0,0.55829 -0.0988,1.0817 -0.29652,1.57019 -0.19773,0.4885 -0.471,0.91311 -0.81992,1.27367 -0.33731,0.34892 -0.7444,0.62781 -1.22127,0.83716 -0.47686,0.19772 -0.98837,0.29653 -1.53503,0.29653 -0.54664,0 -1.05883,-0.0988 -1.53569,-0.29653 -0.46524,-0.20935 -0.87233,-0.48824 -1.22125,-0.83716 -0.33729,-0.36056 -0.60429,-0.78517 -0.80201,-1.27367 -0.19773,-0.48849 -0.29652,-1.0119 -0.29652,-1.57019 0,-0.56991 0.0988,-1.09332 0.29652,-1.57019 0.19772,-0.48849 0.46472,-0.90748 0.80201,-1.25641 0.34892,-0.36055 0.75601,-0.63944 1.22125,-0.83717 0.47686,-0.20935 0.98905,-0.31377 1.53569,-0.31377 z"></path><path id="path4666-9-1-3-7" style="display:inline;fill:#00a499;fill-opacity:1;stroke:none;stroke-width:0.850515;stroke-miterlimit:4;stroke-dasharray:none;paint-order:fill markers stroke;stop-color:#000000" d="m 250.011,72.121952 v 6.03464 l 8.43536,5.025 8.43536,-5.02433 v -6.03531 h -3.37388 v 2.06904 h -3.37387 v -2.06904 h -3.37456 v 2.06904 h -3.37387 v -2.06904 z m 1.3002,8.20451 v 2.4936 l 7.13516,4.24952 7.13583,-4.2482 v -2.49492 l -7.13583,4.25019 z m 0,3.88999 v 2.49226 l 7.13516,4.25084 7.13583,-4.24952 v -2.49358 l -7.13583,4.25018 z m 0,3.88798 v 2.49359 l 7.13516,4.24952 7.13583,-4.24886 v -2.49359 l -7.13583,4.24953 z"></path><g aria-label="TM" id="text25286-6" style="font-weight:bold;font-size:1.70287px;line-height:1.25;font-family:Roboto;-inkscape-font-specification:'Roboto Bold';letter-spacing:0px;word-spacing:0px;fill:#ffffff;stroke-width:0.0425718"><path d="m 349.06116,78.1715 v -0.20205 h 0.9853 v 0.20205 h -0.37001 v 1.008584 h -0.24944 V 78.1715 Z" id="path35854-7" style="fill:#ffffff"></path><path d="m 350.82556,78.847492 0.31014,-0.878042 h 0.32677 v 1.210634 h -0.25027 v -0.330929 l 0.0249,-0.568732 -0.32594,0.899661 h -0.17128 l -0.32594,-0.899661 0.0249,0.568732 v 0.330929 h -0.25027 V 77.96945 h 0.32677 z" id="path35856-3" style="fill:#ffffff"></path></g></g></g></svg> 