<?xml version="1.0" encoding="utf-8"?>
<svg width="100%" height="100%" viewBox="0 0 330 90" version="1.1" style="fill-rule:evenodd;clip-rule:evenodd;stroke-linejoin:round;stroke-miterlimit:1.41421;" xmlns="http://www.w3.org/2000/svg">
  <path d="M 159.588 71.054 C 144.742 71.054 131.423 62.623 131.423 50.833 C 131.423 39.038 144.742 30.599 159.694 30.599 C 166.195 30.599 172.265 32.239 178.866 35.921 L 174.214 41.901 C 169.983 39.854 165 38.628 159.694 38.628 C 153.41 38.628 146.153 42.147 146.153 50.833 C 146.153 59.515 153.302 63.033 159.694 63.033 C 165 63.033 170.09 61.968 174.424 60.081 L 179.085 66.388 C 173.562 69.341 166.842 71.054 159.588 71.054 Z" style="fill-rule: nonzero; fill: rgb(255, 255, 255);"/>
  <path d="M 244.389 70.904 C 259.336 70.904 272.662 62.468 272.662 50.683 C 272.662 38.888 259.336 30.446 244.389 30.446 C 229.438 30.446 216.113 38.888 216.113 50.683 C 216.113 62.468 229.438 70.904 244.389 70.904 Z M 257.931 50.683 C 257.931 59.365 250.675 62.88 244.389 62.88 C 238.103 62.88 230.85 59.365 230.85 50.683 C 230.85 41.995 238.103 38.476 244.389 38.476 C 250.675 38.476 257.931 41.995 257.931 50.683 Z" style="fill-rule: nonzero; fill: rgb(255, 255, 255);"/>
  <path d="M 278.681 69.927 L 292.644 69.927 L 292.644 45.845 C 292.644 42.595 295.171 38.769 299.69 38.741 C 302.846 38.769 305.873 40.927 305.873 43.667 L 305.848 69.927 L 319.845 69.927 L 319.845 42.923 C 319.845 35.811 312.222 29.876 303.124 29.876 C 303.036 29.876 302.947 29.886 302.86 29.89 C 302.772 29.886 302.683 29.876 302.595 29.876 C 298.836 29.876 295.271 30.972 292.357 32.81 C 292.331 32.706 291.548 30.124 278.681 30.124 L 278.681 69.927 Z" style="fill-rule: nonzero; fill: rgb(255, 255, 255);"/>
  <rect x="111.032" y="31.435" width="13.679" height="38.492" style="fill-rule: nonzero; fill: rgb(255, 255, 255);"/>
  <path d="M 185.608 69.927 L 199.289 69.927 L 199.289 46.585 C 199.289 42.897 203.62 39.946 208.281 39.946 C 210.558 39.946 212.703 40.401 214.501 41.2 L 214.504 41.2 L 214.504 31.075 C 212.891 30.831 211.147 30.698 209.607 30.698 C 205.942 30.698 202.263 31.763 199.252 33.546 C 199.028 33.093 197.351 30.942 185.608 30.942 L 185.608 69.927 Z" style="fill-rule: nonzero; fill: rgb(255, 255, 255);"/>
  <path d="M 115.783 4.085 C 110.591 -3.351 94.461 -0.337 73.554 10.708 C 72.62 11.169 71.79 11.651 71.179 12.073 C 70.167 12.772 70.759 13.286 71.503 13.015 C 72.266 12.737 73.138 12.401 74.12 11.921 C 89.794 4.489 102.016 3.153 106.796 8.341 C 114.077 16.243 99.165 42.138 73.343 61.294 C 69.895 63.851 64.575 67.593 61.11 69.673 C 60.877 69.816 60.645 69.958 60.419 70.107 C 59.505 70.706 58.688 71.263 58.046 71.763 C 57.423 72.251 57.542 73.023 58.671 72.539 C 59.354 72.246 60.19 71.8 61.079 71.259 C 61.279 71.136 61.477 71.025 61.685 70.894 C 65.579 68.531 71.36 64.539 75.309 61.783 C 78.706 59.41 81.915 57.003 84.935 54.583 L 84.933 69.927 L 98.941 69.927 L 98.941 41.911 C 114.367 25.999 120.755 11.206 115.783 4.085 Z" style="fill-rule: nonzero; fill: rgb(255, 255, 255);"/>
  <path d="M 32.179 89.915 L 46.187 89.915 L 46.186 75.396 C 50.016 73.134 53.892 70.654 57.702 68.054 C 58.561 67.466 59.319 66.88 59.868 66.376 C 60.774 65.548 60.121 65.123 59.419 65.492 C 58.7 65.869 57.848 66.382 56.929 66.97 C 35.288 80.808 20.68 85.033 15.284 77.708 C 10.598 71.351 18.28 59.058 32.179 45.177 L 32.179 77.4 C 36.122 76.06 40.784 73.923 46.185 70.921 L 46.182 41.026 L 49.263 47.581 C 52.64 54.824 58.768 59.152 66.56 59.152 C 74.352 59.152 80.479 54.824 83.857 47.581 L 86.938 41.026 L 86.936 48.653 C 91.948 43.794 96.226 38.938 99.474 34.243 C 99.878 33.663 99.843 33.173 99.622 32.638 C 97.46 28.132 92.862 25.024 87.52 25.024 C 82.239 25.024 77.649 28.091 75.45 32.522 L 69.59 44.956 C 68.984 46.169 67.867 46.841 66.562 46.841 C 65.259 46.841 64.136 46.169 63.53 44.956 L 57.669 32.522 C 56.553 30.27 54.817 28.372 52.688 27.05 C 56.973 23.645 61.139 20.606 65.243 18.118 C 66.177 17.552 66.942 16.983 67.587 16.489 C 68.218 16.007 68.103 15.235 66.971 15.71 C 66.285 15.997 65.395 16.436 64.503 16.976 C 60.313 19.515 56.028 22.116 51.93 24.913 C 51.434 25.251 50.942 25.593 50.452 25.933 C 48.944 25.349 47.308 25.024 45.598 25.024 C 38.174 25.024 32.179 31.022 32.179 38.446 L 32.179 40.296 C 12.39 57.939 2.002 75.412 7.432 83.191 C 11.417 88.896 20.865 87.578 32.179 82.664 L 32.179 89.915 Z" style="fill-rule: nonzero; fill: rgb(255, 255, 255);"/>
  <path d="M325.17,33.32l0.735,0c0.493,0 0.919,-0.066 0.919,-0.668c0,-0.526 -0.481,-0.613 -0.909,-0.613l-0.745,0l0,1.281Zm-0.831,-1.917l1.664,0c1.073,0 1.653,0.373 1.653,1.315c0,0.766 -0.438,1.138 -1.171,1.204l1.205,1.96l-0.856,0l-1.159,-1.927l-0.505,0l0,1.927l-0.831,0l0,-4.479Zm4.511,2.256c0,-1.85 -1.336,-3.186 -2.989,-3.186c-1.654,0 -2.99,1.336 -2.99,3.186c0,1.851 1.336,3.187 2.99,3.187c1.653,0 2.989,-1.336 2.989,-3.187Zm-6.942,0c0,-2.179 1.774,-3.953 3.953,-3.953c2.178,0 3.953,1.774 3.953,3.953c0,2.179 -1.775,3.953 -3.953,3.953c-2.179,0 -3.953,-1.774 -3.953,-3.953Z" style="fill-rule: nonzero; fill: rgb(255, 255, 255);"/>
</svg>