<?xml version="1.0" encoding="utf-8"?>
<!-- Generator: Adobe Illustrator 21.0.0, SVG Export Plug-In . SVG Version: 6.00 Build 0)  -->
<svg version="1.1" id="Layer_1" xmlns="http://www.w3.org/2000/svg" xmlns:xlink="http://www.w3.org/1999/xlink" x="0px" y="0px"
	 viewBox="0 0 261 44.4" style="enable-background:new 0 0 261 44.4;" xml:space="preserve">
<style type="text/css">
	.st0{fill-rule:evenodd;clip-rule:evenodd;fill:#4D4D4D;}
	.st1{fill-rule:evenodd;clip-rule:evenodd;fill:#5C8727;}
	.st2{fill:#4D4D4D;}
	.st3{fill:#8C8C8C;}
</style>
<g>
	<path class="st0" d="M7.7,0C3.4,0,0,3.4,0,7.7v29c0,4.2,3.4,7.7,7.7,7.7h28.6c4.2,0,7.7-3.4,7.7-7.7v-29C44,3.4,40.5,0,36.3,0H7.7z
		 M3.6,36.7v-29c0-2.3,1.8-4.1,4.1-4.1h28.6c2.3,0,4.1,1.8,4.1,4.1v29c0,2.3-1.8,4.1-4.1,4.1H7.7C5.4,40.8,3.6,39,3.6,36.7z"/>
</g>
<circle class="st1" cx="23.4" cy="12.4" r="4.5"/>
<path class="st1" d="M18.4,34.8C13.5,29,9.8,25,8.1,23c-2.5-3-0.3-6.4,3.6-3.8c1.8,1.2,3.5,2.5,6.9,4.9c2.5,1.8,4.3,1.8,7,0.1
	c6.4-4,21.2-14.1,23.8-15.8c3.1-2,5.5,1.2,2.9,3.7c-2.1,2-19.7,17.2-26,22.8C22.9,37.9,21,37.8,18.4,34.8z"/>
<g>
	<path class="st2" d="M61.2,18.2c0,3.7,3.3,4.8,5.3,5.5c0,0,2.1,0.6,2.1,0.6c2,0.6,3.3,1,3.3,2.5c0,1.5-1.4,2.5-3.4,2.5
		c-0.9,0-2.7-0.2-3.6-1.6c0,0-0.6-1.4-0.6-1.4l-0.2-0.5c-0.2-0.4-0.5-1-1.6-1c-0.9,0-2.1,0.5-2.1,1.9c0,0.6,0.4,2.7,2.1,4.2
		c1.4,1.1,3.3,1.8,5.7,1.8c1.2,0,3.5-0.2,5.2-1.3c0.9-0.6,2.4-2,2.4-4.8c0-4.2-3.7-5.3-5.7-5.9l-2.1-0.7c-1.8-0.6-2.9-0.9-2.9-2.3
		c0-0.6,0.3-1.3,0.9-1.6c0.4-0.3,1.1-0.4,1.9-0.4c1.8,0,3.1,0.7,3.8,2.1c0.5,1.1,0.8,1.6,1.9,1.6c0.8,0,1.9-0.5,1.9-1.8
		c0-1.1-1.3-5.3-7.5-5.3C61.4,12.5,61.2,17.6,61.2,18.2z"/>
</g>
<g>
	<path class="st2" d="M92.9,25.3c-1,0-1.3,0.5-1.8,1.4L91,26.8c-0.6,0.9-1.5,2.3-4.2,2.3c-1.3,0-2.7-0.2-3.9-1.6
		c-0.8-0.9-1.1-2.1-1.3-3.7c0.8,0,11.7,0,11.7,0c1.3,0,2-0.7,2-2c0-2.2-0.7-4.6-1.9-6.3c-1.1-1.5-2.5-2.4-4.4-2.9
		c-0.7-0.2-1.6-0.3-2.4-0.3c-6.4,0-9.2,5.1-9.2,10.3c0,2.9,0.9,5.5,2.5,7.3c2.1,2.4,4.9,2.7,6.9,2.7c2.9,0,5.3-1,7-2.9
		c0.2-0.3,1.1-1.2,1.2-2.1c0,0,0-0.4,0-0.4C95.1,26,94,25.3,92.9,25.3z M83.4,17.2c1.1-1,2.4-1.1,3.3-1.1c3.6,0,4.3,2.9,4.5,4.3
		c-0.7,0-8.7,0-9.5,0C81.9,19.5,82.3,18.2,83.4,17.2z"/>
</g>
<g>
	<path class="st2" d="M98.7,7.8v22.8c0,1.2,0.8,2,2,2c1.5,0,2-1,2-2V7.8c0-0.9-0.5-2-2-2C99.2,5.8,98.7,6.9,98.7,7.8z"/>
</g>
<g>
	<path class="st2" d="M126.4,18.2c-0.5,1.3-0.7,2.7-0.7,4.3c0,4.9,2.4,10.1,9.1,10.1c5.4,0,7.1-3,7.7-4c0.5-0.9,0.8-1.7,0.8-2.4
		c0-1.4-1.3-1.9-2.1-1.9c-1.3,0-1.7,1.1-1.9,1.6l0,0c-0.5,1.1-1.4,3-4.4,3c-4.3,0-5-4.2-5-6.7c0-1.5,0.4-6.4,5-6.4
		c2.7,0,3.6,1.7,3.9,2.4c0.4,0.8,0.8,1.7,2.1,1.7c1.2,0,2.1-0.8,2.1-2c0-0.4-0.1-0.9-0.8-2.1c-1-1.6-2.7-3.5-7.2-3.5
		C129.6,12.5,127.3,15.6,126.4,18.2z"/>
</g>
<g>
	<path class="st2" d="M147.3,9c0,0,0,3.3,0,3.9c-0.5,0-1.6,0-1.6,0c-1.1,0-1.7,0.7-1.7,1.8c0,1.3,0.9,1.8,1.7,1.8c0,0,1.1,0,1.6,0
		c0,0.7,0,10.3,0,10.3c0,2.8,0,5.9,5.4,5.9c0.6,0,2.5,0,2.5-1.8c0-1.7-1.3-1.7-2.1-1.7c-1-0.1-1.4-0.2-1.6-1
		c-0.1-0.4-0.1-0.7-0.1-2.8c0,0,0-8.2,0-8.8c0.5,0,1.9,0,1.9,0c0.8,0,1.7-0.5,1.7-1.8c0-1.1-0.6-1.8-1.7-1.8c0,0-1.4,0-1.9,0
		c0-0.6,0-3.9,0-3.9c0-1.2-0.7-1.9-2-1.9C148,7,147.3,7.7,147.3,9z"/>
</g>
<g>
	<path class="st3" d="M159,7.8v22.7c0,0.5,0.1,2,2,2c1,0,1.6-0.5,1.8-1c0,0,0.2-0.9,0.2-0.9V22c0-1.7,0.1-3.1,1.3-4.4
		c0.8-0.9,2.1-1.4,3.5-1.4c1.4,0,2.3,0.5,2.8,1.4c0.4,0.8,0.5,1.7,0.5,3.9v9.1c0,0.5,0.1,2,2,2c1,0,1.6-0.5,1.8-1
		c0,0,0.2-0.9,0.2-0.9V20.5c0-1.8,0-4-1.2-5.7c-0.6-0.9-2.2-2.3-5.4-2.3c-2.2,0-4.1,0.8-5.4,2c0-1.4,0-6.7,0-6.7c0-0.9-0.5-2-2.1-2
		C159.5,5.8,159,6.8,159,7.8z"/>
</g>
<g>
	<path class="st3" d="M212.2,14.5c-1.2-1.4-3.1-2.1-5.9-2.1c-3.2,0-5.5,1-6.8,3c-0.2,0.4-0.8,1.4-0.8,2.3c0,0.9,0.5,1.8,2.1,1.8
		c1.6,0,1.8-1,1.9-1.4c0.3-0.9,0.8-2.2,3.7-2.2c1.6,0,3.4,0.5,3.4,2.7c0,0.7-0.2,0.9-0.8,1.1c0,0-2.2,0.5-2.2,0.5
		c0,0-3.1,0.7-3.1,0.7c-2.1,0.4-5.8,1.2-5.8,5.8c0,3.7,2.5,6.1,6.4,6.1c1.6,0,3.7-0.5,5.5-2.2c0,0.6,0.1,0.8,0.2,1
		c0.2,0.4,0.6,1,1.7,1c1.1,0,1.7-0.6,1.8-1.8l0-0.1V19.9C213.6,18,213.6,16.1,212.2,14.5z M209.1,27.7c-0.5,0.7-1.9,1.9-4,1.9
		c-1.8,0-3.4-1-3.4-3c0-2,1.6-2.6,2.2-2.8c0.5-0.2,1.2-0.4,1.8-0.5l1.9-0.4c1.5-0.3,1.8-0.4,2.5-0.7C210.1,24.7,210,26.4,209.1,27.7
		z"/>
</g>
<g>
	<path class="st3" d="M217.8,7.8v22.8c0,1.2,0.8,2,2,2c1.5,0,2-1,2-2V7.8c0-0.9-0.5-2-2-2C218.4,5.8,217.8,6.9,217.8,7.8z"/>
</g>
<g>
	<path class="st3" d="M227.9,9c0,0,0,3.3,0,3.9c-0.5,0-1.6,0-1.6,0c-1.1,0-1.7,0.7-1.7,1.8c0,1.3,0.9,1.8,1.7,1.8c0,0,1.1,0,1.6,0
		c0,0.7,0,10.3,0,10.3c0,2.8,0,5.9,5.4,5.9c0.6,0,2.5,0,2.5-1.8c0-1.7-1.3-1.7-2.1-1.7c-1-0.1-1.4-0.2-1.6-1
		c-0.1-0.4-0.1-0.6-0.1-2.8c0,0,0-8.2,0-8.8c0.5,0,1.9,0,1.9,0c0.8,0,1.7-0.5,1.7-1.8c0-1.1-0.6-1.8-1.7-1.8c0,0-1.4,0-1.9,0
		c0-0.6,0-3.9,0-3.9c0-1.2-0.7-1.9-2-1.9C228.7,7,227.9,7.7,227.9,9z"/>
</g>
<g>
	<path class="st3" d="M238.9,7.8v22.7c0,0.5,0.1,2,2,2c1,0,1.6-0.6,1.8-1c0.2-0.5,0.2-0.9,0.2-0.9V22c0-1.7,0.1-3.1,1.3-4.4
		c0.8-0.9,2.1-1.4,3.5-1.4c1.4,0,2.3,0.5,2.8,1.4c0.4,0.8,0.5,1.7,0.5,3.9v9.1c0,0.5,0.1,2,2,2c1,0,1.6-0.5,1.8-1
		c0.3-0.5,0.2-0.9,0.2-0.9V20.5c0-1.8,0-4-1.2-5.7c-0.6-0.9-2.2-2.3-5.4-2.3c-2.2,0-4.1,0.8-5.4,2c0-1.4,0-6.7,0-6.7
		c0-0.9-0.5-2-2.1-2C239.5,5.8,238.9,6.8,238.9,7.8z"/>
</g>
<g>
	<path class="st2" d="M121.6,25.3c-1,0-1.3,0.5-1.8,1.4l-0.1,0.1c-0.6,0.9-1.5,2.3-4.2,2.3c-1.3,0-2.7-0.2-3.9-1.6
		c-0.8-0.9-1.1-2.1-1.3-3.7c0.8,0,11.7,0,11.7,0c1.3,0,2-0.7,2-2c0-2.2-0.7-4.6-1.9-6.3c-1.1-1.5-2.5-2.4-4.4-2.9
		c-0.7-0.2-1.6-0.3-2.4-0.3c-6.4,0-9.2,5.1-9.2,10.3c0,2.9,0.9,5.5,2.5,7.3c2.1,2.4,4.9,2.7,6.9,2.7c2.9,0,5.3-1,7-2.9
		c0.2-0.3,1.1-1.2,1.2-2.1c0,0,0-0.4,0-0.4C123.8,26,122.7,25.3,121.6,25.3z M112.1,17.2c1.1-1,2.4-1.1,3.3-1.1
		c3.6,0,4.3,2.9,4.5,4.3c-0.7,0-8.7,0-9.5,0C110.6,19.5,111,18.2,112.1,17.2z"/>
</g>
<g>
	<path class="st3" d="M193.1,25.4c-1,0-1.3,0.5-1.8,1.4l-0.1,0.1c-0.6,0.9-1.5,2.3-4.2,2.3c-1.3,0-2.7-0.2-3.9-1.6
		c-0.8-0.9-1.1-2.1-1.3-3.7c0.8,0,11.7,0,11.7,0c1.3,0,2-0.7,2-2c0-2.2-0.7-4.6-1.9-6.3c-1.1-1.5-2.5-2.4-4.4-2.9
		c-0.7-0.2-1.6-0.3-2.4-0.3c-6.4,0-9.2,5.1-9.2,10.3c0,2.9,0.9,5.5,2.5,7.3c2.1,2.4,4.9,2.7,6.9,2.7c2.9,0,5.3-1,7-2.9
		c0.2-0.3,1.1-1.2,1.2-2.1c0,0,0-0.4,0-0.4C195.4,26.1,194.2,25.4,193.1,25.4z M183.7,17.3c1.1-1,2.4-1.1,3.3-1.1
		c3.6,0,4.3,2.9,4.5,4.3c-0.7,0-8.7,0-9.5,0C182.2,19.6,182.6,18.3,183.7,17.3z"/>
</g>
<path class="st3" d="M259.1,32.3c-1.1,0-1.9-0.8-1.9-2c0-1.2,0.9-2,1.9-2c1,0,1.9,0.8,1.9,2S260.1,32.3,259.1,32.3z M259.1,28.7
	c-0.9,0-1.5,0.7-1.5,1.6c0,0.9,0.6,1.6,1.5,1.6c0.8,0,1.5-0.7,1.5-1.6C260.6,29.4,260,28.7,259.1,28.7z M258.7,31.5h-0.4v-2.2h0.8
	c0.5,0,0.8,0.2,0.8,0.6c0,0.4-0.2,0.6-0.6,0.6l0.6,1h-0.4l-0.6-0.9h-0.3V31.5z M259.1,30.2c0.3,0,0.5,0,0.5-0.3
	c0-0.3-0.3-0.3-0.5-0.3h-0.4v0.6H259.1z"/>
</svg>
