<svg version="1.2" baseProfile="tiny-ps" xmlns="http://www.w3.org/2000/svg" viewBox="0 0 280 36" width="280" height="36">
	<title>ic-logo-svg</title>
	<style>
		tspan { white-space:pre }
		.shp0 { fill: #ffffff } 
	</style>
	<path id="Layer" fill-rule="evenodd" class="shp0" d="M54.16 9.25C50.98 9.25 50 9.33 48.73 10.93L48.37 10.71L49.55 7.24L64.77 7.24L65.95 10.71L65.58 10.93C64.54 9.31 63.11 9.25 60.19 9.25C59.12 9.25 58.86 9.45 58.86 10.27L58.86 23.8C58.86 25.23 59.59 25.45 60.3 25.68L60.3 26.16L54.05 26.16L54.05 25.68C54.76 25.45 55.48 25.23 55.48 23.8L55.48 10.27C55.48 9.45 55.23 9.25 54.16 9.25ZM62.6 11.72L73.85 11.72L75.03 14.96L74.66 15.21C73.4 13.86 72.53 13.44 70.87 13.44C70.64 13.44 68.28 13.44 68.28 13.44C67.32 13.44 67.1 13.67 67.1 14.37L67.1 17.78L70.78 17.78C72.22 17.78 72.44 17.41 72.67 16.56L73.23 16.56L73.23 20.61L72.67 20.61C72.44 19.77 72.22 19.43 70.78 19.43L67.1 19.43L67.1 23.48C67.1 24.41 67.32 24.43 68.28 24.43L71.32 24.43C72.95 24.43 74.19 24.08 75.37 22.52L75.73 22.77L74.39 26.16L62.6 26.16L62.6 25.68C63.53 25.45 64.01 25.23 64.01 23.79L64.01 14.09C64.01 12.68 63.53 12.46 62.6 12.21L62.6 11.72ZM75.54 12.19L75.54 11.72L82.37 11.72L82.37 12.19C81.44 12.34 80.82 12.85 81.67 14.08L83.68 17.11L85.91 13.8C86.53 12.88 86.22 12.29 85.15 12.21L85.15 11.73L90.3 11.73L90.3 12.21C89.46 12.46 88.75 12.71 87.91 13.92L84.71 18.44L88.67 24.06C89.12 24.69 89.46 25.05 89.83 25.29C90.31 24.96 90.75 24.39 91.23 23.21L95.73 11.73L98.93 11.73L103.63 24.05C103.94 24.87 104.58 25.46 105.29 25.68L105.29 26.16L99.21 26.16L99.21 25.68C100.37 25.52 100.51 24.93 100.11 23.83L99.49 22.15L93.58 22.15L92.94 23.83C92.44 25.18 92.89 25.52 93.87 25.68L93.87 26.16L84 26.16L84 25.68C84.84 25.57 85.83 25.21 84.9 23.88L82.39 20.27L80.01 23.99C79.3 25.08 79.75 25.48 80.8 25.67L80.8 26.15L75.34 26.15L75.34 25.67C76.3 25.45 76.91 25.25 77.95 23.79L81.36 18.95L77.76 13.87C76.97 12.74 76.49 12.46 75.54 12.19ZM94.2 20.53L98.91 20.53L96.6 14.23L94.2 20.53ZM106.61 26.16L105.91 26.16L104.75 21.86L105.12 21.6C106.5 23.2 108.19 24.58 110.83 24.58C112.72 24.58 113.87 23.82 113.87 22.39C113.87 21.35 113.28 20.75 111.62 20.39L109.14 19.83C106.39 19.21 105.12 17.89 105.12 15.79C105.12 13.03 107.4 11.51 110.32 11.51C111.95 11.51 112.91 12.04 113.53 12.38C113.81 12.38 113.95 12.05 113.95 11.73L114.63 11.73L115.7 15.45L115.33 15.7C114.15 14.34 112.51 13.36 110.44 13.36C108.58 13.36 107.74 14.06 107.74 15.13C107.74 16.05 108.21 16.48 109.7 16.82L112.32 17.41C115.19 18.05 116.68 19.15 116.68 21.85C116.68 24.72 114.29 26.41 110.89 26.41C108.86 26.41 107.76 25.76 107.12 25.45C106.84 25.45 106.61 25.93 106.61 26.16Z" />
	<path id="Layer" fill-rule="evenodd" class="shp0" d="M125.79 7.74L125.79 7.26L132.32 7.26L132.32 7.74C131.44 7.99 130.74 8.21 130.74 9.62L130.74 23.8C130.74 25.24 131.44 25.46 132.32 25.68L132.32 26.16L125.79 26.16L125.79 25.68C126.66 25.46 127.36 25.23 127.36 23.8L127.36 9.62C127.36 8.21 126.66 7.99 125.79 7.74ZM143.71 12.21L143.71 11.73L148.21 11.73L148.21 12.21C147.65 12.46 146.94 12.68 146.94 14.09L146.94 26.36L146.44 26.36L136.85 15.41L136.76 15.41L136.76 23.8C136.76 25.15 137.49 25.45 138.25 25.68L138.25 26.16L133.44 26.16L133.44 25.68C134.37 25.46 134.85 25.14 134.85 23.8L134.85 14.09C134.85 12.85 134.29 12.57 133.44 12.21L133.44 11.73L137.69 11.73L144.94 20L145.03 20L145.03 14.09C145.03 12.69 144.55 12.46 143.71 12.21ZM160.62 21.86C160.62 24.73 158.23 26.41 154.83 26.41C152.81 26.41 151.71 25.76 151.06 25.45C150.78 25.45 150.56 25.92 150.56 26.15L149.85 26.15L148.7 21.86L149.07 21.6C150.44 23.2 152.14 24.58 154.78 24.58C156.67 24.58 157.82 23.83 157.82 22.39C157.82 21.35 157.22 20.75 155.56 20.4L153.09 19.84C150.34 19.21 149.07 17.89 149.07 15.79C149.07 13.03 151.35 11.51 154.28 11.51C155.91 11.51 156.87 12.05 157.49 12.38C157.77 12.38 157.91 12.05 157.91 11.74L158.59 11.74L159.65 15.45L159.29 15.71C158.11 14.35 156.47 13.36 154.39 13.36C152.54 13.36 151.69 14.07 151.69 15.13C151.69 16.05 152.17 16.48 153.66 16.82L156.28 17.41C159.15 18.06 160.64 19.16 160.62 21.86ZM161.48 11.73L172.96 11.73L174.11 15.44L173.75 15.7C172.21 13.63 171.67 13.45 169.61 13.45C168.91 13.45 168.68 13.5 168.68 14.37L168.68 23.8C168.68 25.24 169.13 25.45 170.26 25.68L170.26 26.16L164.07 26.16L164.07 25.68C165.22 25.45 165.64 25.23 165.64 23.8L165.64 14.37C165.64 13.5 165.42 13.45 164.71 13.45C162.66 13.45 162.24 13.64 160.69 15.7L160.33 15.45L161.48 11.73ZM190.17 25.53L190.17 25.93C189.69 26.18 189.22 26.41 188.03 26.41C185.7 26.41 184.46 25.2 183.53 23.26C182.41 20.9 182.16 20.19 180.41 20.19L178.92 20.19L178.92 23.8C178.92 25.23 179.51 25.45 180.38 25.68L180.38 26.16L174.34 26.16L174.34 25.68C175.27 25.45 175.75 25.23 175.75 23.8L175.75 14.09C175.75 12.68 175.28 12.46 174.34 12.21L174.34 11.72L181.74 11.72C185.36 11.72 187.61 12.92 187.61 15.72C187.61 17.83 186.2 19.13 183.73 19.52L183.73 19.6C184.77 19.86 185.67 20.48 186.54 21.88C187.66 23.71 188.28 25.26 190.17 25.53ZM184.21 15.87C184.21 14.18 183.2 13.5 181.45 13.5L179.85 13.5C179.15 13.5 178.92 13.75 178.92 14.68L178.92 18.51L181.39 18.51C183.05 18.51 184.21 17.64 184.21 15.87ZM199.34 12.21L199.34 11.73L204.1 11.73L204.1 12.2C203.23 12.4 202.8 12.68 202.8 14.09L202.8 21.2C202.8 25.23 200.3 26.41 196.78 26.41C193.63 26.41 190.28 25.29 190.28 21.43L190.28 14.09C190.28 12.69 189.72 12.35 188.85 12.21L188.85 11.73L194.76 11.73L194.76 12.21C193.88 12.38 193.35 12.69 193.35 14.09L193.35 21.21C193.35 23.57 194.36 24.61 197.2 24.61C199.87 24.61 200.77 23.57 200.77 21.21L200.77 14.09C200.77 12.69 200.07 12.38 199.34 12.21ZM218.32 11.73L223.41 11.73L223.41 12.21C222.49 12.46 222.01 12.69 222.01 14.09L222.01 23.8C222.01 25.23 222.49 25.45 223.41 25.68L223.41 26.16L217.51 26.16L217.51 25.68C218.21 25.48 218.83 25.23 218.83 23.8L218.83 14.74L213.77 26.39L213.37 26.39L208.17 14.74L208.17 23.8C208.17 25.06 208.59 25.43 209.55 25.68L209.55 26.16L204.96 26.16L204.96 25.68C205.83 25.39 206.37 25.06 206.37 23.8L206.37 14.09C206.37 12.69 205.89 12.46 204.96 12.21L204.96 11.73L210.13 11.73L214.3 21.1L218.32 11.73ZM237.3 22.52L237.67 22.78L236.32 26.16L224.53 26.16L224.53 25.68C225.46 25.46 225.94 25.23 225.94 23.8L225.94 14.09C225.94 12.69 225.46 12.46 224.53 12.21L224.53 11.73L235.78 11.73L236.97 14.96L236.61 15.22C235.34 13.87 234.46 13.45 232.81 13.45C232.58 13.45 230.22 13.45 230.22 13.45C229.26 13.45 229.04 13.68 229.04 14.38L229.04 17.78L232.72 17.78C234.16 17.78 234.38 17.42 234.61 16.57L235.17 16.57L235.17 20.62L234.61 20.62C234.38 19.78 234.16 19.44 232.72 19.44L229.04 19.44L229.04 23.49C229.04 24.42 229.26 24.44 230.22 24.44L233.26 24.44C234.89 24.44 236.12 24.08 237.3 22.52ZM248.28 12.21L248.28 11.73L252.78 11.73L252.78 12.21C252.22 12.46 251.51 12.68 251.51 14.09L251.51 26.36L251 26.36L241.41 15.41L241.33 15.41L241.33 23.8C241.33 25.15 242.05 25.45 242.82 25.68L242.82 26.16L238.01 26.16L238.01 25.68C238.94 25.46 239.42 25.14 239.42 23.8L239.42 14.09C239.42 12.85 238.85 12.57 238.01 12.21L238.01 11.73L242.26 11.73L249.51 20L249.6 20L249.6 14.09C249.6 12.69 249.12 12.46 248.28 12.21ZM254.1 11.73L265.58 11.73L266.73 15.44L266.37 15.7C264.83 13.63 264.29 13.45 262.24 13.45C261.53 13.45 261.3 13.5 261.3 14.37L261.3 23.8C261.3 25.24 261.75 25.45 262.88 25.68L262.88 26.16L256.69 26.16L256.69 25.68C257.84 25.45 258.26 25.23 258.26 23.8L258.26 14.37C258.26 13.5 258.04 13.45 257.33 13.45C255.28 13.45 254.86 13.64 253.31 15.7L252.94 15.45L254.1 11.73ZM279 21.86C279 24.73 276.6 26.41 273.21 26.41C271.19 26.41 270.09 25.76 269.44 25.45C269.16 25.45 268.94 25.92 268.94 26.15L268.23 26.15L267.09 21.86L267.45 21.6C268.82 23.2 270.52 24.58 273.16 24.58C275.06 24.58 276.2 23.83 276.2 22.39C276.2 21.35 275.6 20.75 273.95 20.4L271.48 19.84C268.73 19.21 267.46 17.89 267.46 15.79C267.46 13.03 269.74 11.51 272.67 11.51C274.31 11.51 275.26 12.05 275.88 12.38C276.16 12.38 276.31 12.05 276.31 11.74L276.99 11.74L278.05 15.45L277.7 15.71C276.51 14.35 274.88 13.36 272.8 13.36C270.95 13.36 270.1 14.07 270.1 15.13C270.1 16.05 270.58 16.48 272.07 16.82L274.68 17.41C277.55 18.06 279.04 19.16 279 21.86Z" />
	<path id="Layer" fill-rule="evenodd" class="shp0" d="M36.58 15.52L36.58 22.44C35.6 22.68 32.65 23.42 29.95 25.4C27.99 26.87 26.27 29.09 26.27 31.31C26.27 32.8 26.52 33.78 27.01 34.77C27.01 34.77 26.13 35.39 24.31 35.26C22.09 35.11 19.65 33.29 18.18 30.57C16.21 27.12 15.23 22.92 13.03 22.92C10.81 22.92 10.81 25.17 9.1 25.15C6.86 25.13 6.18 22.14 5.42 20.45C4.3 18 1.25 17.5 1 14.04L10.89 14.04L10.89 0.72L19.16 0.72L19.16 7.28L21.39 7.28L20.52 11.62L18.13 11.62L17.33 15.62L19.72 15.62L18.56 21.56C18.48 22.03 18.35 22.51 18.25 22.99C17.6 26.14 20.1 26.17 23.17 26.17L26.42 26.17L27.27 21.91C25.41 21.91 24.83 21.98 25.04 20.65C25.07 20.45 25.12 20.24 25.19 19.94L26.05 15.61L28.53 15.61L29.32 11.62L26.84 11.62L27.71 7.28L34.62 7.28L34.62 11.57C34.62 14.47 36.58 15.52 36.58 15.52ZM20.01 21.9L22.91 7.27L26.26 7.27L23.36 21.9L20.01 21.9ZM26.51 5.87L23.17 5.87L23.81 2.64L27.16 2.64L26.51 5.87Z" />
</svg>